<?xml version="1.0" encoding="UTF-8"?>
<!DOCTYPE svg PUBLIC "-//W3C//DTD SVG 1.1//EN" "http://www.w3.org/Graphics/SVG/1.1/DTD/svg11.dtd">
<!-- Creator: CorelDRAW -->
<svg xmlns="http://www.w3.org/2000/svg" xml:space="preserve" width="7in" height="7in" version="1.1" style="shape-rendering:geometricPrecision; text-rendering:geometricPrecision; image-rendering:optimizeQuality; fill-rule:evenodd; clip-rule:evenodd"
viewBox="0 0 7000 7000"
 xmlns:xlink="http://www.w3.org/1999/xlink"
 xmlns:xodm="http://www.corel.com/coreldraw/odm/2003">
 <defs>
  <style type="text/css">
   <![CDATA[
    .fil0 {fill:#FEFEFE}
   ]]>
  </style>
 </defs>
 <g id="Capa_x0020_1">
  <metadata id="CorelCorpID_0Corel-Layer"/>
  <path class="fil0" d="M4509.89 3581.97c-8.59,19.13 -30.2,21.09 -52.34,20.28 -131.19,-4.83 -327.4,-0.97 -460.99,-0.97 -184.41,0 -194.06,-23.67 -193.91,71.92l1.25 2366.62c0.1,55.85 -8.68,72.62 -65.34,72.29l-887.61 0.08c-25.05,-0.72 -23.97,-4.37 -27.35,-10.65 -30.89,-8.42 -22.04,-100.81 -20.52,-137.4 2.14,-51.33 0.33,-106.47 0.33,-158.23l0 -1589.21c0,-92.61 -4.72,-467.2 2.55,-551 2.68,-30.83 -6.9,-47.28 -12.91,-65.11 -120.07,-19.43 -456.6,10.06 -523.3,-7.37 -8.83,-1.53 -14.98,-0.39 -18.32,-13.95l-1.09 -435.81c0,-28.26 -5.02,-353.95 4.12,-366.58 10.08,-13.93 69.47,-11.91 83.8,-10.87 75.3,5.44 152.72,-0.19 227.34,-0.26 40.66,-0.05 196.84,12.83 223.35,-4.58 29.83,-19.59 14.44,-161.43 14.44,-212.8 0,-76.85 0.11,-153.75 0,-230.47 -0.2,-148.06 10.72,-296.88 36.31,-430.93 15.74,-82.44 36.87,-146.55 68.54,-219.99 0.32,-0.74 0.72,-1.63 1.02,-2.38 33.26,-81.48 99.38,-189.91 161.04,-248.93 19.56,-18.71 37.21,-39.94 59.5,-57.4 30.61,-23.96 67.12,-53.66 102.17,-73.67l13.11 -7.15c113.41,-68 232.81,-107.92 364.63,-136.95 32.98,-7.26 67.36,-11.13 100.59,-17.31 78.31,-14.6 163.69,-12.07 212.03,-20.93 36.33,-6.66 397.45,-2.12 466.38,-2.12 271.26,0 264.97,-28.44 264.97,86.05l-3.1 347.43c0,78.26 3.1,148.76 3.1,227.03 0,154.4 15.42,167.93 -65.4,167.54 -88.64,-0.43 -399.99,-9.41 -463.84,-2.23 -92.44,10.4 -111.82,8.29 -184.51,50.03 -43.48,24.97 -85.39,74.56 -109.28,124 -6.65,13.76 -11.12,26.36 -16.23,41.59l-11.01 47.15c-6.11,33.38 0.27,80.53 -3.59,114.66 -7.26,64.06 -2.35,161.17 -2.35,231.24 0,70.57 -7.67,159.89 5.56,224.82 25.24,9.15 18.39,9.39 49.03,9.18l736.16 -1.08c43.55,-0.09 67.17,-1.48 57.56,51.62 -11.44,63.22 -26.08,128.91 -34.84,191.46l-80.84 483.7c-2.58,34.57 -8.91,63.22 -20.2,87.67zm-4520.76 -111.72c0,86.99 7.83,166.44 10.2,251.22 0.47,16.84 4.97,33.91 6.51,48.53 1.76,16.7 -0.98,33.23 1.8,49.8l12.46 94.18c0.35,9.06 -0.89,17.77 0.91,26.61 2.15,10.51 4.51,7.16 5.83,21.69l8.49 70.63c2.5,11.79 3.7,9.09 5.21,22.3 3.7,32.27 12.45,57.28 16.84,89.8 7.58,56.13 24.31,116.72 36.99,172.84l174.88 516.53c1.57,3.79 2.27,6.1 3.86,9.9 61.46,146.19 137.41,285.42 217.86,421.95l33.8 55.63c5.21,7.31 5.84,9.61 10.42,17.1 4.24,6.93 2.54,3.67 5.49,8.27l165.15 233.87c2.67,3.5 3.8,5.47 5.69,8.07l39.74 49.7c0.46,0.54 1.12,1.31 1.58,1.86l99.98 120.18c0.47,0.53 1.13,1.3 1.6,1.83l123.83 134.15c0.47,0.53 1.13,1.31 1.61,1.83l32.79 32.57c0.72,0.69 2.82,2.64 3.54,3.34 4.72,4.61 2.43,2.37 6.77,6.98l72.24 68.79c0.54,0.48 1.3,1.15 1.82,1.63l35.6 33.19c12.42,9.66 16.03,14.66 27.07,24.53 3.44,3.07 4.16,3.48 7.39,6.37l49.24 43.63c9.85,8.78 20.19,15.7 30.74,24.3l27.73 23.87c41.61,34.86 88.63,65.17 130,100.44l36 25.92c3.61,2.43 3.97,2.62 8.04,5.75l39.53 29.26c5.17,3.83 9.24,6.63 14.26,9.81l187.05 119.1c15.37,9.06 -11,-6.52 4.33,2.55l4.3 2.57c5.71,3.36 11.22,6.43 17.64,9.89l103.18 58.49c52.01,27.06 103,58.18 157.29,80.06l89.44 41.28c7.77,3.51 13.32,6.06 19.1,8.41 4.67,1.9 6.53,2.52 9.83,3.93 3.88,1.66 3.76,1.8 9.46,4.3l142.41 57.1c3.11,1.26 8.96,3.63 9.8,3.96l91.03 32.8c0.83,0.29 1.74,0.58 2.57,0.87 0.85,0.28 1.78,0.53 2.63,0.81l15.46 5.18c0.84,0.28 1.74,0.58 2.58,0.86l25.89 8.5c0.85,0.28 1.77,0.55 2.62,0.83 0.84,0.28 1.74,0.58 2.57,0.87 0.83,0.28 1.71,0.63 2.53,0.91 6.23,2.14 0.89,0.65 10.31,3.45l337.24 89.3c53.07,8.46 103.17,22.04 157.13,28.62 7.96,0.97 13.46,2.95 22.66,4.86 17.48,3.63 27.67,3.13 45.8,5.8 5.3,0.78 17.07,4.4 22.35,5.17l71.44 7.68c23.83,0.19 27.81,6.03 48.07,6.96 54.54,2.53 157.39,13.7 199.57,13.7l326.79 0c47.13,0 145.84,-12.52 196.2,-13.63 20.75,-0.46 25.43,-6.25 44.57,-7.03l363.65 -59.46c6.98,-1.26 13.4,-3.71 21.91,-5.61 9.69,-2.17 12.47,-2.33 22.36,-5.17l255.57 -71.21c9.42,-2.8 4.07,-1.31 10.31,-3.45l31.08 -10.19c73.56,-21.24 188.09,-66.06 262.25,-98.93l118.36 -53.64c81.39,-33.87 158.23,-79.98 235.9,-121.85l395.43 -261.58c32.5,-25.66 67.33,-49.48 97.95,-77.48 0.52,-0.48 1.23,-1.21 1.76,-1.69l33.63 -28.28c10.99,-8.88 19.09,-15.47 30.42,-24.62l27.27 -24.32c11.31,-9.89 17.6,-17.63 28.81,-26.23 9.69,-7.44 18.85,-15.61 27.54,-24.06l10.36 -10.28c0.52,-0.48 1.3,-1.14 1.83,-1.61l44.38 -41.62c0.53,-0.47 1.31,-1.13 1.83,-1.61l189.51 -199.19c0.47,-0.53 1.14,-1.3 1.62,-1.82l4.98 -5.33c3.43,-3.52 3.5,-3.32 6.92,-6.84 9.21,-9.48 16.65,-18.02 25.55,-29.49 4.63,-5.98 6.09,-7.44 10.96,-13.11l175.4 -223.62c35.59,-51.87 72.48,-102.17 105.41,-156.02l100.59 -167.72c28.23,-51.5 70.89,-122.67 91.17,-173.7l43.26 -90.89c4.48,-9.98 4.8,-9.79 8.76,-18.76l104.76 -263.31c3.08,-8.19 1.31,-2.86 3.7,-10.06 1.33,-4 2.07,-6.91 3.27,-10.48 0.35,-1.06 1.45,-4.02 1.81,-5.07 0.28,-0.83 0.62,-1.72 0.9,-2.54 0.28,-0.84 0.58,-1.74 0.86,-2.58l6.02 -18.06c1.19,-3.56 1.95,-6.51 3.28,-10.48 0.28,-0.84 0.57,-1.75 0.86,-2.57l114.72 -439.1 31.57 -209.22c0.81,-7.63 3.48,-13.85 5.11,-22.41 3.1,-16.24 -0.42,-32.68 2.68,-48.92l11.09 -95.55c2.74,-17.87 -0.15,-35.52 1.83,-53.2 8.35,-74.44 12.22,-216.39 9.93,-293 -0.55,-18.41 -3.81,-25.79 -3.57,-48.02l-17.94 -246.93c-4.2,-17.16 -0.29,-33.16 -3.51,-51.53 -0.98,-5.61 -4.26,-13.26 -5.21,-18.87l-11.59 -95.05c-3.05,-10.99 -2.09,-9.77 -3.31,-24.21 -2.35,-27.93 -13.61,-61.96 -16.61,-90.02 -1.82,-17 -1.07,-10.26 -4.64,-22.88 -3.02,-10.67 -1.43,-13.11 -3.59,-23.96 -1.66,-8.37 -3.31,-8.03 -5.24,-18.37 -0.86,-4.58 -0.68,-7.24 -1.69,-12.07 -2.27,-10.85 0.05,1.27 -3.25,-10.91 -2.7,-9.98 -1.48,-13.97 -3.77,-23.77 -2.61,-11.17 -0.05,1.84 -3.56,-10.2 -8.83,-30.29 -12.89,-64.85 -22.31,-94.64l-11.13 -43.91c-0.25,-0.89 -0.51,-1.79 -0.78,-2.66l-34.89 -119.9c-9.5,-28.12 -18.14,-52.16 -26.71,-79.93 -0.97,-3.16 -1.19,-4.33 -2.26,-8.06l-85.14 -224.46c-5.74,-12.82 -10.15,-23.95 -15.4,-36.2l-101.98 -214.48c-7.08,-12.71 -11.78,-23.65 -18.5,-36.54 -11.78,-22.59 -25.2,-44.61 -37.84,-68.77l-109.92 -182.5c-3.48,-5.66 -6.33,-10.57 -10.59,-16.93 -32.09,-48.01 -62.99,-97.15 -98.8,-141.99 -0.63,-0.79 -2.41,-3.06 -3.02,-3.87l-48.57 -64.94c-37.27,-47.21 -72.95,-96.5 -113.73,-140.81l-9.65 -10.99c-8.82,-10.43 -14.21,-17.48 -23.53,-28.07l-78.54 -86.59c-0.47,-0.51 -1.14,-1.28 -1.6,-1.8l-21.79 -22.97c-5.33,-5.42 -8.5,-8.23 -13.79,-13.71l-201.97 -193.62c-1.1,-1.01 -5.96,-5.68 -7.06,-6.69l-80.33 -67.58c-0.54,-0.47 -1.3,-1.14 -1.84,-1.6 -0.54,-0.46 -1.31,-1.12 -1.85,-1.58l-237.24 -178.98c-4.19,-3.13 -0.71,-0.82 -5.74,-4.59 -54.12,-40.47 -114.62,-74.14 -171.65,-110.41 -6.95,-4.43 -10.36,-5.64 -17.73,-9.79l-67.08 -39.56c-7.01,-3.8 -10.11,-5.59 -15.58,-8.49 -8.44,-4.48 -9.52,-5.53 -17.37,-10.15l-69.74 -36.89c-6.79,-3.36 -12.17,-5.81 -18.14,-9.38l-70.3 -36.34c-7.4,-3.77 -11.85,-4.77 -19.35,-8.17l-51.63 -24.05c-6.01,-3.17 -11.43,-6.46 -18.19,-9.33l-295.26 -117.53c-0.8,-0.3 -1.7,-0.63 -2.51,-0.93l-20.45 -7.07c-0.85,-0.27 -1.75,-0.57 -2.59,-0.85 -0.83,-0.28 -1.71,-0.61 -2.54,-0.9 -1.05,-0.36 -4.01,-1.46 -5.06,-1.81 -0.84,-0.28 -1.74,-0.58 -2.58,-0.86l-522.63 -130.93c-36.9,-7.34 -113.48,-13.43 -142.02,-19.65l-46.28 -5.32c-21.74,-0.4 -26.13,-6.64 -47.92,-7.12 -54.08,-1.19 -148.47,-13.63 -199.65,-13.63l-309.59 0c-45.3,0 -146.8,12.54 -196.2,13.63l-94.07 12.57c-38.87,6.32 -74.82,8.24 -114.2,16.51l-180.32 32.95c-10.21,3 -10.32,2.17 -23.06,4.46l-433.41 127.28c-7.33,2.74 -8.95,3.73 -19.98,7.54l-207.7 84.69c-6.37,2.87 -11.18,5 -19.02,8.5 -96.07,42.83 -188.93,91.09 -280.12,142.98l-165.63 99.24c-10.86,6.98 -21.64,13.87 -32.92,22.12 -6.89,5.04 -6.19,5.3 -13.82,10.26l-17.23 10.29c-0.86,0.55 -3.26,2.21 -4.12,2.76l-158.15 113.59c-0.56,0.45 -1.37,1.07 -1.93,1.52l-21.87 15.97c-11.31,8.82 -19.02,15.48 -30.52,24.52 -74.43,58.45 -143.55,122.5 -214.47,184.55l-7.19 6.57c-46.54,45.19 -95.81,90.26 -140.17,138.46 -4.48,4.87 -6.85,8.66 -10.94,13.14 -0.48,0.52 -1.19,1.26 -1.67,1.76 -0.49,0.51 -1.22,1.22 -1.73,1.72l-3.58 3.3c-3.02,2.84 -4.19,3.78 -7.05,6.71 -8.52,8.72 -15.97,17.2 -24.83,26.77 -3.16,3.41 -3.69,4.16 -6.39,7.36 -0.46,0.54 -1.11,1.33 -1.57,1.87l-42.29 47.15c-9.4,10.63 -15.96,19.22 -25.16,29.88l-66.96 80.96c-0.46,0.54 -1.14,1.3 -1.6,1.84l-202.65 278.92c-0.38,0.66 -0.89,1.52 -1.27,2.17l-55.94 88.54c-0.38,0.65 -0.89,1.52 -1.27,2.17l-44.72 75.67c-0.39,0.65 -0.89,1.52 -1.28,2.17l-100.21 188.74c-2.81,6.03 -6.36,12.8 -9.15,18.37 -6.69,13.34 -11.66,22.57 -18.06,36.98l-46.72 104.63c-29.21,63.06 -53.71,128.14 -77.45,194.3l-31.27 92.56c-0.36,1.06 -1.45,4.02 -1.81,5.07l-44.22 144.97c-8.17,27.7 -14.5,54.52 -22.93,83.7 -3.77,13.04 -8.32,30.53 -10.5,41.11l-52.7 267.2c-1.54,20.81 -5.92,24.49 -6.74,48.3l-20.67 192.61c-0.73,14.53 -5.03,32.08 -6.42,45.18l-10.8 257.5z"/>
 </g>
</svg>
